<svg width="41" height="41" viewBox="0 0 41 41" fill="none" xmlns="http://www.w3.org/2000/svg">
<path d="M35.2173 38.6713L38.5954 38.6713C39.016 38.6725 39.4164 38.4912 39.6928 38.1742C39.9692 37.8573 40.0944 37.4359 40.0359 37.0195L35.9078 8.28729L35.2173 38.6713Z" fill="#F29C1F"/>
<path d="M33.8367 3.45337H2.07163C0.927503 3.45337 0 4.38087 0 5.525V38.6712C0 39.8153 0.927503 40.7428 2.07163 40.7428H33.8367C34.9808 40.7428 35.9083 39.8153 35.9083 38.6712V5.525C35.9083 4.38087 34.9808 3.45337 33.8367 3.45337Z" fill="#F0C419"/>
<path d="M33.1476 7.59666V11.7399H2.76367V7.59666C2.76595 6.83486 3.38295 6.21785 4.14476 6.21558H31.7666C32.5284 6.21785 33.1454 6.83486 33.1476 7.59666Z" fill="#E64C3C"/>
<path d="M33.1476 11.7399V32.5737C33.1475 32.9417 33.0009 33.2945 32.7402 33.5542L28.7213 37.5732C28.4615 37.8339 28.1087 37.9805 27.7407 37.9806H4.14476C3.38295 37.9784 2.76595 37.3614 2.76367 36.5995V11.7399H33.1476Z" fill="#ECF0F1"/>
<path d="M12.4279 30.3848C14.7153 30.3825 16.5689 28.5289 16.5712 26.2415V20.7172C16.5712 18.4289 14.7162 16.5739 12.4279 16.5739C10.1397 16.5739 8.28467 18.4289 8.28467 20.7172V26.2415C8.28695 28.5289 10.1406 30.3825 12.4279 30.3848ZM9.66576 20.7172C9.66576 19.1917 10.9024 17.955 12.4279 17.955C13.9534 17.955 15.1901 19.1917 15.1901 20.7172V26.2415C15.1901 27.7671 13.9534 29.0037 12.4279 29.0037C10.9024 29.0037 9.66576 27.7671 9.66576 26.2415V20.7172Z" fill="#547580"/>
<path d="M20.0245 29.0037C19.6432 29.0037 19.334 29.3128 19.334 29.6942C19.334 30.0756 19.6432 30.3848 20.0245 30.3848H25.5489C25.9303 30.3848 26.2394 30.0756 26.2394 29.6942C26.2394 29.3128 25.9303 29.0037 25.5489 29.0037H23.4773V17.2644C23.4772 16.9851 23.309 16.7334 23.051 16.6266C22.793 16.5197 22.496 16.5787 22.2985 16.7762L19.5363 19.5384C19.2746 19.8093 19.2784 20.24 19.5447 20.5064C19.8111 20.7727 20.2418 20.7765 20.5127 20.5148L22.0962 18.9314V29.0037H20.0245Z" fill="#547580"/>
<path d="M25.5501 32.4564H9.6676C9.28622 32.4564 8.97705 32.7655 8.97705 33.1469C8.97705 33.5283 9.28622 33.8375 9.6676 33.8375H25.5501C25.9315 33.8375 26.2407 33.5283 26.2407 33.1469C26.2407 32.7655 25.9315 32.4564 25.5501 32.4564Z" fill="#35495E"/>
<path d="M33.0215 33.1469C32.9523 33.2985 32.8564 33.4365 32.7384 33.5543L28.7194 37.5733C28.6017 37.6912 28.4637 37.7871 28.312 37.8564V34.5279C28.3143 33.7661 28.9313 33.1491 29.6931 33.1469H33.0215Z" fill="#D1D4D1"/>
<path d="M16.3385 3.45345H14.8953C14.2051 1.87197 12.4532 1.04287 10.7926 1.51174C9.132 1.98061 8.0725 3.60349 8.31132 5.31243C8.55014 7.02137 10.014 8.29161 11.7395 8.28727C12.1209 8.28727 12.43 8.59644 12.43 8.97782C12.43 9.35919 12.1209 9.66836 11.7395 9.66836C9.28089 9.66866 7.21373 7.8234 6.93604 5.38052C6.65834 2.93764 8.25857 0.675488 10.6545 0.123934C13.0505 -0.427621 15.4787 0.90716 16.2971 3.22558C16.3248 3.29835 16.3388 3.3756 16.3385 3.45345Z" fill="#95A5A5"/>
<path d="M29.4582 3.45345H28.0149C27.3247 1.87197 25.5729 1.04287 23.9123 1.51174C22.2516 1.98061 21.1921 3.60349 21.431 5.31243C21.6698 7.02137 23.1336 8.29161 24.8591 8.28727C25.2405 8.28727 25.5497 8.59644 25.5497 8.97782C25.5497 9.35919 25.2405 9.66836 24.8591 9.66836C22.4005 9.66866 20.3334 7.8234 20.0557 5.38052C19.778 2.93764 21.3782 0.675488 23.7741 0.123934C26.1701 -0.427621 28.5984 0.90716 29.4167 3.22558C29.4444 3.29835 29.4584 3.3756 29.4582 3.45345Z" fill="#95A5A5"/>
</svg>
