<svg width="40" height="40" viewBox="0 0 40 40" fill="none" xmlns="http://www.w3.org/2000/svg">
<path d="M28.2496 39.3709C32.3039 39.3709 35.5906 36.0843 35.5906 32.03C35.5906 27.9757 32.3039 24.689 28.2496 24.689C24.1953 24.689 20.9087 27.9757 20.9087 32.03C20.9087 36.0843 24.1953 39.3709 28.2496 39.3709Z" fill="#F9F3F1"/>
<path d="M33.4398 37.2208C30.5731 40.0875 25.9255 40.0875 23.0588 37.2208C22.9557 37.1177 22.8558 37.0113 22.7607 36.9035C25.6274 38.9437 29.6307 38.6779 32.201 36.1076C34.963 33.3456 35.0637 28.9292 32.5022 26.0463C32.8308 26.2799 33.145 26.5441 33.4398 26.8389C36.3073 29.7057 36.3073 34.3541 33.4398 37.2208Z" fill="#EFE2DD"/>
<path d="M19.3436 2.96491C20.7799 0.248172 24.1466 -0.789751 26.8634 0.646683L37.0356 6.02482C39.7523 7.46117 40.7902 10.8279 39.3538 13.5446C37.9175 16.2613 34.5508 17.2992 31.834 15.8628L21.6618 10.4846C18.9452 9.04835 17.9072 5.68158 19.3436 2.96491Z" fill="#FEC165"/>
<path d="M39.3542 13.5445C39.3067 13.6347 39.2567 13.7233 39.2028 13.8103C39.8045 11.3866 38.7074 8.77524 36.4005 7.55574L26.2289 2.17752C23.6023 0.788864 20.3691 1.71274 18.8604 4.22987C18.9667 3.79975 19.1269 3.37446 19.3436 2.96447C20.7798 0.247577 24.1468 -0.789878 26.8636 0.646322L37.036 6.02454C39.7522 7.46066 40.7904 10.8276 39.3542 13.5445Z" fill="#FDB441"/>
<path d="M26.748 13.1735L31.9496 3.33551L37.0357 6.02462C39.7524 7.46097 40.7903 10.8277 39.3539 13.5444C37.9176 16.2611 34.5509 17.299 31.8341 15.8626L26.748 13.1735Z" fill="#6BD9E7"/>
<path d="M39.3544 13.5445C39.3278 13.5953 39.2996 13.6452 39.2714 13.6952C39.2496 13.7338 39.2263 13.7725 39.2029 13.8104C39.8046 11.3867 38.7075 8.77535 36.4006 7.55586L31.1787 4.7947L31.9496 3.33594L37.0362 6.02465C39.7523 7.4607 40.7906 10.8276 39.3544 13.5445Z" fill="#2ED1E2"/>
<path d="M17.5299 14.6711C19.7217 16.8251 19.7522 20.348 17.5982 22.5398L9.53275 30.7464C7.37869 32.9382 3.85579 32.9687 1.66402 30.8147C-0.527748 28.6606 -0.55827 25.1377 1.59572 22.946L9.66109 14.7394C11.8152 12.5476 15.3381 12.517 17.5299 14.6711Z" fill="#7ACAA6"/>
<path d="M1.66395 30.8149C1.59112 30.7436 1.52055 30.6703 1.45264 30.5937C3.60264 31.8641 6.41876 31.5606 8.24769 29.6994L16.3129 21.4934C18.3955 19.3742 18.4359 16.0119 16.4561 13.8457C16.8377 14.0708 17.1994 14.3461 17.5301 14.6711C19.7221 16.825 19.7522 20.3479 17.5983 22.5399L9.53284 30.7468C7.37916 32.9379 3.85596 32.9688 1.66395 30.8149Z" fill="#57BE92"/>
<path d="M5.62844 18.8427L13.5655 26.6431L9.53275 30.7464C7.37869 32.9381 3.85579 32.9687 1.66402 30.8147C-0.527748 28.6606 -0.55827 25.1377 1.59572 22.9459L5.62844 18.8427Z" fill="#EE6161"/>
<path d="M1.66395 30.8149C1.62297 30.7749 1.58316 30.7336 1.54342 30.6923C1.51259 30.6603 1.48222 30.6269 1.45264 30.5937C3.60264 31.8641 6.41876 31.5606 8.24769 29.6994L12.3884 25.4866L13.5653 26.6428L9.53284 30.7467C7.37916 32.9379 3.85596 32.9688 1.66395 30.8149Z" fill="#E94444"/>
<path d="M30.8835 35.2496C30.7337 35.2496 30.5839 35.1924 30.4695 35.0781L25.2013 29.8098C24.9726 29.5811 24.9726 29.2104 25.2013 28.9818C25.4301 28.7532 25.8007 28.7532 26.0293 28.9818L31.2975 34.2501C31.5261 34.4788 31.5261 34.8495 31.2975 35.0781C31.1832 35.1924 31.0333 35.2496 30.8835 35.2496Z" fill="#CDBFBA"/>
</svg>
